<svg xmlns="http://www.w3.org/2000/svg" xmlns:xlink="http://www.w3.org/1999/xlink" width="600" height="400" viewBox="0 0 2400 1600">
<defs>
  <clipPath id="clip970">
    <rect x="0" y="0" width="2400" height="1600"></rect>
  </clipPath>
</defs>
<path clip-path="url(#clip970)" d="M0 1600 L2400 1600 L2400 0 L0 0  Z" fill="#ffffff" fill-rule="evenodd" fill-opacity="1"></path>
<defs>
  <clipPath id="clip971">
    <rect x="480" y="0" width="1681" height="1600"></rect>
  </clipPath>
</defs>
<path clip-path="url(#clip970)" d="M249.542 1423.18 L2352.76 1423.18 L2352.76 47.2441 L249.542 47.2441  Z" fill="#ffffff" fill-rule="evenodd" fill-opacity="1"></path>
<defs>
  <clipPath id="clip972">
    <rect x="249" y="47" width="2104" height="1377"></rect>
  </clipPath>
</defs>
<polyline clip-path="url(#clip972)" style="stroke:#000000; stroke-linecap:round; stroke-linejoin:round; stroke-width:2; stroke-opacity:0.1; fill:none" points="309.067,1423.18 309.067,47.2441 "></polyline>
<polyline clip-path="url(#clip972)" style="stroke:#000000; stroke-linecap:round; stroke-linejoin:round; stroke-width:2; stroke-opacity:0.1; fill:none" points="639.761,1423.18 639.761,47.2441 "></polyline>
<polyline clip-path="url(#clip972)" style="stroke:#000000; stroke-linecap:round; stroke-linejoin:round; stroke-width:2; stroke-opacity:0.1; fill:none" points="970.455,1423.18 970.455,47.2441 "></polyline>
<polyline clip-path="url(#clip972)" style="stroke:#000000; stroke-linecap:round; stroke-linejoin:round; stroke-width:2; stroke-opacity:0.1; fill:none" points="1301.15,1423.18 1301.15,47.2441 "></polyline>
<polyline clip-path="url(#clip972)" style="stroke:#000000; stroke-linecap:round; stroke-linejoin:round; stroke-width:2; stroke-opacity:0.1; fill:none" points="1631.84,1423.18 1631.84,47.2441 "></polyline>
<polyline clip-path="url(#clip972)" style="stroke:#000000; stroke-linecap:round; stroke-linejoin:round; stroke-width:2; stroke-opacity:0.1; fill:none" points="1962.54,1423.18 1962.54,47.2441 "></polyline>
<polyline clip-path="url(#clip972)" style="stroke:#000000; stroke-linecap:round; stroke-linejoin:round; stroke-width:2; stroke-opacity:0.1; fill:none" points="2293.23,1423.18 2293.23,47.2441 "></polyline>
<polyline clip-path="url(#clip970)" style="stroke:#000000; stroke-linecap:round; stroke-linejoin:round; stroke-width:4; stroke-opacity:1; fill:none" points="249.542,1423.18 2352.76,1423.18 "></polyline>
<polyline clip-path="url(#clip970)" style="stroke:#000000; stroke-linecap:round; stroke-linejoin:round; stroke-width:4; stroke-opacity:1; fill:none" points="309.067,1423.18 309.067,1404.28 "></polyline>
<polyline clip-path="url(#clip970)" style="stroke:#000000; stroke-linecap:round; stroke-linejoin:round; stroke-width:4; stroke-opacity:1; fill:none" points="639.761,1423.18 639.761,1404.28 "></polyline>
<polyline clip-path="url(#clip970)" style="stroke:#000000; stroke-linecap:round; stroke-linejoin:round; stroke-width:4; stroke-opacity:1; fill:none" points="970.455,1423.18 970.455,1404.28 "></polyline>
<polyline clip-path="url(#clip970)" style="stroke:#000000; stroke-linecap:round; stroke-linejoin:round; stroke-width:4; stroke-opacity:1; fill:none" points="1301.15,1423.18 1301.15,1404.28 "></polyline>
<polyline clip-path="url(#clip970)" style="stroke:#000000; stroke-linecap:round; stroke-linejoin:round; stroke-width:4; stroke-opacity:1; fill:none" points="1631.84,1423.18 1631.84,1404.28 "></polyline>
<polyline clip-path="url(#clip970)" style="stroke:#000000; stroke-linecap:round; stroke-linejoin:round; stroke-width:4; stroke-opacity:1; fill:none" points="1962.54,1423.18 1962.54,1404.28 "></polyline>
<polyline clip-path="url(#clip970)" style="stroke:#000000; stroke-linecap:round; stroke-linejoin:round; stroke-width:4; stroke-opacity:1; fill:none" points="2293.23,1423.18 2293.23,1404.28 "></polyline>
<path clip-path="url(#clip970)" d="M278.535 1468.75 L308.21 1468.75 L308.21 1472.69 L278.535 1472.69 L278.535 1468.75 Z" fill="#000000" fill-rule="nonzero" fill-opacity="1"></path><path clip-path="url(#clip970)" d="M332.47 1466.95 Q335.826 1467.66 337.701 1469.93 Q339.599 1472.2 339.599 1475.53 Q339.599 1480.65 336.081 1483.45 Q332.562 1486.25 326.081 1486.25 Q323.905 1486.25 321.59 1485.81 Q319.298 1485.39 316.845 1484.54 L316.845 1480.02 Q318.789 1481.16 321.104 1481.74 Q323.419 1482.32 325.942 1482.32 Q330.34 1482.32 332.632 1480.58 Q334.946 1478.84 334.946 1475.53 Q334.946 1472.48 332.794 1470.77 Q330.664 1469.03 326.845 1469.03 L322.817 1469.03 L322.817 1465.19 L327.03 1465.19 Q330.479 1465.19 332.308 1463.82 Q334.136 1462.43 334.136 1459.84 Q334.136 1457.18 332.238 1455.77 Q330.363 1454.33 326.845 1454.33 Q324.923 1454.33 322.724 1454.75 Q320.525 1455.16 317.886 1456.04 L317.886 1451.88 Q320.548 1451.14 322.863 1450.77 Q325.201 1450.39 327.261 1450.39 Q332.585 1450.39 335.687 1452.83 Q338.789 1455.23 338.789 1459.35 Q338.789 1462.22 337.146 1464.21 Q335.502 1466.18 332.47 1466.95 Z" fill="#000000" fill-rule="nonzero" fill-opacity="1"></path><path clip-path="url(#clip970)" d="M609.703 1468.75 L639.379 1468.75 L639.379 1472.69 L609.703 1472.69 L609.703 1468.75 Z" fill="#000000" fill-rule="nonzero" fill-opacity="1"></path><path clip-path="url(#clip970)" d="M653.499 1481.64 L669.819 1481.64 L669.819 1485.58 L647.874 1485.58 L647.874 1481.64 Q650.536 1478.89 655.12 1474.26 Q659.726 1469.61 660.907 1468.27 Q663.152 1465.74 664.032 1464.01 Q664.934 1462.25 664.934 1460.56 Q664.934 1457.8 662.99 1456.07 Q661.069 1454.33 657.967 1454.33 Q655.768 1454.33 653.314 1455.09 Q650.884 1455.86 648.106 1457.41 L648.106 1452.69 Q650.93 1451.55 653.384 1450.97 Q655.837 1450.39 657.874 1450.39 Q663.245 1450.39 666.439 1453.08 Q669.633 1455.77 669.633 1460.26 Q669.633 1462.39 668.823 1464.31 Q668.036 1466.2 665.93 1468.8 Q665.351 1469.47 662.249 1472.69 Q659.147 1475.88 653.499 1481.64 Z" fill="#000000" fill-rule="nonzero" fill-opacity="1"></path><path clip-path="url(#clip970)" d="M940.212 1468.75 L969.888 1468.75 L969.888 1472.69 L940.212 1472.69 L940.212 1468.75 Z" fill="#000000" fill-rule="nonzero" fill-opacity="1"></path><path clip-path="url(#clip970)" d="M980.791 1481.64 L988.429 1481.64 L988.429 1455.28 L980.119 1456.95 L980.119 1452.69 L988.383 1451.02 L993.059 1451.02 L993.059 1481.64 L1000.7 1481.64 L1000.7 1485.58 L980.791 1485.58 L980.791 1481.64 Z" fill="#000000" fill-rule="nonzero" fill-opacity="1"></path><path clip-path="url(#clip970)" d="M1301.15 1454.1 Q1297.54 1454.1 1295.71 1457.66 Q1293.9 1461.2 1293.9 1468.33 Q1293.9 1475.44 1295.71 1479.01 Q1297.54 1482.55 1301.15 1482.55 Q1304.78 1482.55 1306.59 1479.01 Q1308.42 1475.44 1308.42 1468.33 Q1308.42 1461.2 1306.59 1457.66 Q1304.78 1454.1 1301.15 1454.1 M1301.15 1450.39 Q1306.96 1450.39 1310.01 1455 Q1313.09 1459.58 1313.09 1468.33 Q1313.09 1477.06 1310.01 1481.67 Q1306.96 1486.25 1301.15 1486.25 Q1295.34 1486.25 1292.26 1481.67 Q1289.2 1477.06 1289.2 1468.33 Q1289.2 1459.58 1292.26 1455 Q1295.34 1450.39 1301.15 1450.39 Z" fill="#000000" fill-rule="nonzero" fill-opacity="1"></path><path clip-path="url(#clip970)" d="M1622.22 1481.64 L1629.86 1481.64 L1629.86 1455.28 L1621.55 1456.95 L1621.55 1452.69 L1629.82 1451.02 L1634.49 1451.02 L1634.49 1481.64 L1642.13 1481.64 L1642.13 1485.58 L1622.22 1485.58 L1622.22 1481.64 Z" fill="#000000" fill-rule="nonzero" fill-opacity="1"></path><path clip-path="url(#clip970)" d="M1957.19 1481.64 L1973.51 1481.64 L1973.51 1485.58 L1951.56 1485.58 L1951.56 1481.64 Q1954.23 1478.89 1958.81 1474.26 Q1963.42 1469.61 1964.6 1468.27 Q1966.84 1465.74 1967.72 1464.01 Q1968.62 1462.25 1968.62 1460.56 Q1968.62 1457.8 1966.68 1456.07 Q1964.76 1454.33 1961.66 1454.33 Q1959.46 1454.33 1957 1455.09 Q1954.57 1455.86 1951.8 1457.41 L1951.8 1452.69 Q1954.62 1451.55 1957.07 1450.97 Q1959.53 1450.39 1961.56 1450.39 Q1966.94 1450.39 1970.13 1453.08 Q1973.32 1455.77 1973.32 1460.26 Q1973.32 1462.39 1972.51 1464.31 Q1971.73 1466.2 1969.62 1468.8 Q1969.04 1469.47 1965.94 1472.69 Q1962.84 1475.88 1957.19 1481.64 Z" fill="#000000" fill-rule="nonzero" fill-opacity="1"></path><path clip-path="url(#clip970)" d="M2297.48 1466.95 Q2300.84 1467.66 2302.71 1469.93 Q2304.61 1472.2 2304.61 1475.53 Q2304.61 1480.65 2301.09 1483.45 Q2297.57 1486.25 2291.09 1486.25 Q2288.91 1486.25 2286.6 1485.81 Q2284.31 1485.39 2281.85 1484.54 L2281.85 1480.02 Q2283.8 1481.16 2286.11 1481.74 Q2288.43 1482.32 2290.95 1482.32 Q2295.35 1482.32 2297.64 1480.58 Q2299.96 1478.84 2299.96 1475.53 Q2299.96 1472.48 2297.8 1470.77 Q2295.67 1469.03 2291.85 1469.03 L2287.83 1469.03 L2287.83 1465.19 L2292.04 1465.19 Q2295.49 1465.19 2297.32 1463.82 Q2299.15 1462.43 2299.15 1459.84 Q2299.15 1457.18 2297.25 1455.77 Q2295.37 1454.33 2291.85 1454.33 Q2289.93 1454.33 2287.73 1454.75 Q2285.53 1455.16 2282.9 1456.04 L2282.9 1451.88 Q2285.56 1451.14 2287.87 1450.77 Q2290.21 1450.39 2292.27 1450.39 Q2297.59 1450.39 2300.7 1452.83 Q2303.8 1455.23 2303.8 1459.35 Q2303.8 1462.22 2302.15 1464.21 Q2300.51 1466.18 2297.48 1466.95 Z" fill="#000000" fill-rule="nonzero" fill-opacity="1"></path><path clip-path="url(#clip970)" d="M1277.31 1546.43 Q1276.47 1550.59 1275.35 1552.97 Q1273.54 1556.61 1270.45 1556.61 Q1268.26 1556.61 1266.59 1555.29 Q1264.94 1553.97 1264.53 1551.78 Q1263.69 1552.78 1263.08 1553.36 Q1262.5 1553.94 1261.34 1554.84 Q1260.21 1555.71 1258.79 1556.16 Q1257.38 1556.61 1255.77 1556.61 Q1251.84 1556.61 1249.36 1554.55 Q1246.01 1568.04 1245.72 1568.72 Q1244.78 1570.1 1243.43 1570.1 Q1242.59 1570.1 1242.08 1569.59 Q1241.56 1569.1 1241.56 1568.33 Q1241.59 1568.07 1241.79 1567.27 L1251.26 1529.1 Q1251.51 1528.07 1252.16 1527.49 Q1252.83 1526.88 1253.22 1526.82 Q1253.61 1526.72 1253.9 1526.72 Q1254.77 1526.72 1255.28 1527.2 Q1255.83 1527.66 1255.83 1528.49 Q1255.83 1528.62 1255.64 1529.36 Q1255.48 1530.07 1255.22 1531.17 Q1254.96 1532.23 1254.83 1532.71 L1252.06 1543.79 Q1251.13 1547.59 1251.13 1549.39 Q1251.13 1552.13 1252.35 1553.65 Q1253.61 1555.13 1256.02 1555.13 Q1257.54 1555.13 1258.95 1554.52 Q1260.37 1553.87 1261.34 1553 Q1262.3 1552.13 1263.08 1551.2 Q1263.85 1550.23 1264.2 1549.62 Q1264.56 1548.98 1264.59 1548.81 L1266.3 1542.08 L1269.42 1529.75 Q1269.61 1528.98 1269.97 1528.46 Q1270.35 1527.91 1270.81 1527.72 Q1271.26 1527.53 1271.51 1527.49 Q1271.77 1527.43 1272 1527.43 Q1272.8 1527.43 1273.35 1527.91 Q1273.9 1528.4 1273.9 1529.23 Q1273.9 1529.39 1273.7 1530.17 Q1273.54 1530.91 1273.29 1532 Q1273.03 1533.07 1272.9 1533.65 Q1271.87 1537.7 1271.77 1538.12 L1269.94 1545.24 Q1269.84 1545.66 1269.52 1547.01 Q1269.23 1548.36 1269.07 1549.07 Q1268.91 1549.75 1268.74 1550.68 Q1268.62 1551.58 1268.62 1552.1 Q1268.62 1555.13 1270.61 1555.13 Q1271.39 1555.13 1272.06 1554.68 Q1272.74 1554.19 1273.19 1553.52 Q1273.67 1552.84 1274.12 1551.68 Q1274.61 1550.49 1274.9 1549.52 Q1275.19 1548.52 1275.6 1546.98 Q1275.77 1546.24 1275.93 1546.01 Q1276.09 1545.79 1276.54 1545.79 Q1277.31 1545.79 1277.31 1546.43 Z" fill="#000000" fill-rule="nonzero" fill-opacity="1"></path><path clip-path="url(#clip970)" d="M1280.93 1571.42 Q1280.93 1571.1 1281.18 1570.39 L1304.47 1508.17 Q1304.47 1508.11 1304.63 1507.75 Q1304.79 1507.4 1304.89 1507.17 Q1304.98 1506.91 1305.18 1506.72 Q1305.4 1506.53 1305.66 1506.53 Q1306.3 1506.53 1306.3 1507.33 Q1306.3 1507.4 1306.11 1508.17 L1282.76 1570.46 Q1282.37 1571.58 1282.12 1571.91 Q1281.89 1572.23 1281.51 1572.23 Q1280.93 1572.23 1280.93 1571.42 Z" fill="#000000" fill-rule="nonzero" fill-opacity="1"></path><path clip-path="url(#clip970)" d="M1313.59 1529.49 L1313.59 1527.43 Q1317.16 1527.62 1319.71 1527.62 Q1320.96 1527.62 1326.92 1527.43 L1326.92 1529.49 Q1323.03 1529.49 1323.03 1531.26 Q1323.03 1531.65 1323.35 1532.45 L1329.63 1550.07 L1335.3 1534.1 Q1334.1 1530.88 1333.78 1530.49 Q1332.98 1529.49 1329.63 1529.49 L1329.63 1527.43 Q1332.59 1527.62 1335.49 1527.62 Q1336.62 1527.62 1342.35 1527.43 L1342.35 1529.49 Q1338.45 1529.49 1338.45 1531.26 Q1338.45 1531.52 1338.77 1532.52 L1345.31 1550.91 L1351.3 1534.03 Q1351.62 1533.16 1351.66 1532.65 Q1351.66 1531.2 1350.63 1530.39 Q1349.6 1529.56 1347.82 1529.49 L1347.82 1527.43 Q1351.59 1527.62 1353.94 1527.62 Q1356.58 1527.62 1358.77 1527.43 L1358.77 1529.49 Q1354.68 1529.62 1353.23 1533.71 L1345.51 1555.35 Q1344.76 1556.54 1344.18 1556.61 Q1343.32 1556.61 1342.86 1555.35 L1336.13 1536.61 L1329.47 1555.29 Q1329.21 1556.09 1328.98 1556.35 Q1328.76 1556.61 1328.15 1556.61 Q1327.57 1556.61 1327.31 1556.25 Q1327.05 1555.93 1326.76 1555.13 L1318.45 1531.78 Q1317.87 1530.26 1317 1529.88 Q1316.17 1529.49 1313.59 1529.49 Z" fill="#000000" fill-rule="nonzero" fill-opacity="1"></path><polyline clip-path="url(#clip972)" style="stroke:#000000; stroke-linecap:round; stroke-linejoin:round; stroke-width:2; stroke-opacity:0.1; fill:none" points="249.542,1384.24 2352.76,1384.24 "></polyline>
<polyline clip-path="url(#clip972)" style="stroke:#000000; stroke-linecap:round; stroke-linejoin:round; stroke-width:2; stroke-opacity:0.1; fill:none" points="249.542,1059.73 2352.76,1059.73 "></polyline>
<polyline clip-path="url(#clip972)" style="stroke:#000000; stroke-linecap:round; stroke-linejoin:round; stroke-width:2; stroke-opacity:0.1; fill:none" points="249.542,735.212 2352.76,735.212 "></polyline>
<polyline clip-path="url(#clip972)" style="stroke:#000000; stroke-linecap:round; stroke-linejoin:round; stroke-width:2; stroke-opacity:0.1; fill:none" points="249.542,410.699 2352.76,410.699 "></polyline>
<polyline clip-path="url(#clip972)" style="stroke:#000000; stroke-linecap:round; stroke-linejoin:round; stroke-width:2; stroke-opacity:0.1; fill:none" points="249.542,86.1857 2352.76,86.1857 "></polyline>
<polyline clip-path="url(#clip970)" style="stroke:#000000; stroke-linecap:round; stroke-linejoin:round; stroke-width:4; stroke-opacity:1; fill:none" points="249.542,1423.18 249.542,47.2441 "></polyline>
<polyline clip-path="url(#clip970)" style="stroke:#000000; stroke-linecap:round; stroke-linejoin:round; stroke-width:4; stroke-opacity:1; fill:none" points="249.542,1384.24 268.44,1384.24 "></polyline>
<polyline clip-path="url(#clip970)" style="stroke:#000000; stroke-linecap:round; stroke-linejoin:round; stroke-width:4; stroke-opacity:1; fill:none" points="249.542,1059.73 268.44,1059.73 "></polyline>
<polyline clip-path="url(#clip970)" style="stroke:#000000; stroke-linecap:round; stroke-linejoin:round; stroke-width:4; stroke-opacity:1; fill:none" points="249.542,735.212 268.44,735.212 "></polyline>
<polyline clip-path="url(#clip970)" style="stroke:#000000; stroke-linecap:round; stroke-linejoin:round; stroke-width:4; stroke-opacity:1; fill:none" points="249.542,410.699 268.44,410.699 "></polyline>
<polyline clip-path="url(#clip970)" style="stroke:#000000; stroke-linecap:round; stroke-linejoin:round; stroke-width:4; stroke-opacity:1; fill:none" points="249.542,86.1857 268.44,86.1857 "></polyline>
<path clip-path="url(#clip970)" d="M126.205 1370.04 Q122.593 1370.04 120.765 1373.6 Q118.959 1377.14 118.959 1384.27 Q118.959 1391.38 120.765 1394.94 Q122.593 1398.49 126.205 1398.49 Q129.839 1398.49 131.644 1394.94 Q133.473 1391.38 133.473 1384.27 Q133.473 1377.14 131.644 1373.6 Q129.839 1370.04 126.205 1370.04 M126.205 1366.33 Q132.015 1366.33 135.07 1370.94 Q138.149 1375.52 138.149 1384.27 Q138.149 1393 135.07 1397.61 Q132.015 1402.19 126.205 1402.19 Q120.394 1402.19 117.316 1397.61 Q114.26 1393 114.26 1384.27 Q114.26 1375.52 117.316 1370.94 Q120.394 1366.33 126.205 1366.33 Z" fill="#000000" fill-rule="nonzero" fill-opacity="1"></path><path clip-path="url(#clip970)" d="M146.366 1395.64 L151.251 1395.64 L151.251 1401.52 L146.366 1401.52 L146.366 1395.64 Z" fill="#000000" fill-rule="nonzero" fill-opacity="1"></path><path clip-path="url(#clip970)" d="M171.436 1370.04 Q167.825 1370.04 165.996 1373.6 Q164.19 1377.14 164.19 1384.27 Q164.19 1391.38 165.996 1394.94 Q167.825 1398.49 171.436 1398.49 Q175.07 1398.49 176.876 1394.94 Q178.704 1391.38 178.704 1384.27 Q178.704 1377.14 176.876 1373.6 Q175.07 1370.04 171.436 1370.04 M171.436 1366.33 Q177.246 1366.33 180.301 1370.94 Q183.38 1375.52 183.38 1384.27 Q183.38 1393 180.301 1397.61 Q177.246 1402.19 171.436 1402.19 Q165.626 1402.19 162.547 1397.61 Q159.491 1393 159.491 1384.27 Q159.491 1375.52 162.547 1370.94 Q165.626 1366.33 171.436 1366.33 Z" fill="#000000" fill-rule="nonzero" fill-opacity="1"></path><path clip-path="url(#clip970)" d="M201.598 1370.04 Q197.987 1370.04 196.158 1373.6 Q194.352 1377.14 194.352 1384.27 Q194.352 1391.38 196.158 1394.94 Q197.987 1398.49 201.598 1398.49 Q205.232 1398.49 207.037 1394.94 Q208.866 1391.38 208.866 1384.27 Q208.866 1377.14 207.037 1373.6 Q205.232 1370.04 201.598 1370.04 M201.598 1366.33 Q207.408 1366.33 210.463 1370.94 Q213.542 1375.52 213.542 1384.27 Q213.542 1393 210.463 1397.61 Q207.408 1402.19 201.598 1402.19 Q195.787 1402.19 192.709 1397.61 Q189.653 1393 189.653 1384.27 Q189.653 1375.52 192.709 1370.94 Q195.787 1366.33 201.598 1366.33 Z" fill="#000000" fill-rule="nonzero" fill-opacity="1"></path><path clip-path="url(#clip970)" d="M127.2 1045.52 Q123.589 1045.52 121.76 1049.09 Q119.955 1052.63 119.955 1059.76 Q119.955 1066.87 121.76 1070.43 Q123.589 1073.97 127.2 1073.97 Q130.834 1073.97 132.64 1070.43 Q134.468 1066.87 134.468 1059.76 Q134.468 1052.63 132.64 1049.09 Q130.834 1045.52 127.2 1045.52 M127.2 1041.82 Q133.01 1041.82 136.066 1046.43 Q139.144 1051.01 139.144 1059.76 Q139.144 1068.49 136.066 1073.09 Q133.01 1077.68 127.2 1077.68 Q121.39 1077.68 118.311 1073.09 Q115.256 1068.49 115.256 1059.76 Q115.256 1051.01 118.311 1046.43 Q121.39 1041.82 127.2 1041.82 Z" fill="#000000" fill-rule="nonzero" fill-opacity="1"></path><path clip-path="url(#clip970)" d="M147.362 1071.13 L152.246 1071.13 L152.246 1077.01 L147.362 1077.01 L147.362 1071.13 Z" fill="#000000" fill-rule="nonzero" fill-opacity="1"></path><path clip-path="url(#clip970)" d="M166.459 1073.07 L182.778 1073.07 L182.778 1077.01 L160.834 1077.01 L160.834 1073.07 Q163.496 1070.32 168.079 1065.69 Q172.686 1061.03 173.866 1059.69 Q176.112 1057.17 176.991 1055.43 Q177.894 1053.67 177.894 1051.98 Q177.894 1049.23 175.95 1047.49 Q174.028 1045.76 170.927 1045.76 Q168.727 1045.76 166.274 1046.52 Q163.843 1047.28 161.065 1048.83 L161.065 1044.11 Q163.89 1042.98 166.343 1042.4 Q168.797 1041.82 170.834 1041.82 Q176.204 1041.82 179.399 1044.51 Q182.593 1047.19 182.593 1051.68 Q182.593 1053.81 181.783 1055.73 Q180.996 1057.63 178.889 1060.22 Q178.311 1060.89 175.209 1064.11 Q172.107 1067.31 166.459 1073.07 Z" fill="#000000" fill-rule="nonzero" fill-opacity="1"></path><path clip-path="url(#clip970)" d="M192.639 1042.45 L210.996 1042.45 L210.996 1046.38 L196.922 1046.38 L196.922 1054.85 Q197.94 1054.51 198.959 1054.34 Q199.977 1054.16 200.996 1054.16 Q206.783 1054.16 210.162 1057.33 Q213.542 1060.5 213.542 1065.92 Q213.542 1071.5 210.07 1074.6 Q206.598 1077.68 200.278 1077.68 Q198.102 1077.68 195.834 1077.31 Q193.588 1076.94 191.181 1076.19 L191.181 1071.5 Q193.264 1072.63 195.487 1073.19 Q197.709 1073.74 200.186 1073.74 Q204.19 1073.74 206.528 1071.63 Q208.866 1069.53 208.866 1065.92 Q208.866 1062.31 206.528 1060.2 Q204.19 1058.09 200.186 1058.09 Q198.311 1058.09 196.436 1058.51 Q194.584 1058.93 192.639 1059.81 L192.639 1042.45 Z" fill="#000000" fill-rule="nonzero" fill-opacity="1"></path><path clip-path="url(#clip970)" d="M126.205 721.011 Q122.593 721.011 120.765 724.575 Q118.959 728.117 118.959 735.247 Q118.959 742.353 120.765 745.918 Q122.593 749.46 126.205 749.46 Q129.839 749.46 131.644 745.918 Q133.473 742.353 133.473 735.247 Q133.473 728.117 131.644 724.575 Q129.839 721.011 126.205 721.011 M126.205 717.307 Q132.015 717.307 135.07 721.913 Q138.149 726.497 138.149 735.247 Q138.149 743.973 135.07 748.58 Q132.015 753.163 126.205 753.163 Q120.394 753.163 117.316 748.58 Q114.26 743.973 114.26 735.247 Q114.26 726.497 117.316 721.913 Q120.394 717.307 126.205 717.307 Z" fill="#000000" fill-rule="nonzero" fill-opacity="1"></path><path clip-path="url(#clip970)" d="M146.366 746.612 L151.251 746.612 L151.251 752.492 L146.366 752.492 L146.366 746.612 Z" fill="#000000" fill-rule="nonzero" fill-opacity="1"></path><path clip-path="url(#clip970)" d="M161.482 717.932 L179.839 717.932 L179.839 721.867 L165.765 721.867 L165.765 730.339 Q166.783 729.992 167.802 729.83 Q168.82 729.645 169.839 729.645 Q175.626 729.645 179.005 732.816 Q182.385 735.987 182.385 741.404 Q182.385 746.983 178.913 750.085 Q175.44 753.163 169.121 753.163 Q166.945 753.163 164.677 752.793 Q162.431 752.423 160.024 751.682 L160.024 746.983 Q162.107 748.117 164.329 748.673 Q166.552 749.228 169.028 749.228 Q173.033 749.228 175.371 747.122 Q177.709 745.015 177.709 741.404 Q177.709 737.793 175.371 735.687 Q173.033 733.58 169.028 733.58 Q167.153 733.58 165.278 733.997 Q163.427 734.413 161.482 735.293 L161.482 717.932 Z" fill="#000000" fill-rule="nonzero" fill-opacity="1"></path><path clip-path="url(#clip970)" d="M201.598 721.011 Q197.987 721.011 196.158 724.575 Q194.352 728.117 194.352 735.247 Q194.352 742.353 196.158 745.918 Q197.987 749.46 201.598 749.46 Q205.232 749.46 207.037 745.918 Q208.866 742.353 208.866 735.247 Q208.866 728.117 207.037 724.575 Q205.232 721.011 201.598 721.011 M201.598 717.307 Q207.408 717.307 210.463 721.913 Q213.542 726.497 213.542 735.247 Q213.542 743.973 210.463 748.58 Q207.408 753.163 201.598 753.163 Q195.787 753.163 192.709 748.58 Q189.653 743.973 189.653 735.247 Q189.653 726.497 192.709 721.913 Q195.787 717.307 201.598 717.307 Z" fill="#000000" fill-rule="nonzero" fill-opacity="1"></path><path clip-path="url(#clip970)" d="M127.2 396.498 Q123.589 396.498 121.76 400.062 Q119.955 403.604 119.955 410.734 Q119.955 417.84 121.76 421.405 Q123.589 424.946 127.2 424.946 Q130.834 424.946 132.64 421.405 Q134.468 417.84 134.468 410.734 Q134.468 403.604 132.64 400.062 Q130.834 396.498 127.2 396.498 M127.2 392.794 Q133.01 392.794 136.066 397.4 Q139.144 401.984 139.144 410.734 Q139.144 419.46 136.066 424.067 Q133.01 428.65 127.2 428.65 Q121.39 428.65 118.311 424.067 Q115.256 419.46 115.256 410.734 Q115.256 401.984 118.311 397.4 Q121.39 392.794 127.2 392.794 Z" fill="#000000" fill-rule="nonzero" fill-opacity="1"></path><path clip-path="url(#clip970)" d="M147.362 422.099 L152.246 422.099 L152.246 427.979 L147.362 427.979 L147.362 422.099 Z" fill="#000000" fill-rule="nonzero" fill-opacity="1"></path><path clip-path="url(#clip970)" d="M161.251 393.419 L183.473 393.419 L183.473 395.41 L170.927 427.979 L166.042 427.979 L177.848 397.354 L161.251 397.354 L161.251 393.419 Z" fill="#000000" fill-rule="nonzero" fill-opacity="1"></path><path clip-path="url(#clip970)" d="M192.639 393.419 L210.996 393.419 L210.996 397.354 L196.922 397.354 L196.922 405.826 Q197.94 405.479 198.959 405.317 Q199.977 405.132 200.996 405.132 Q206.783 405.132 210.162 408.303 Q213.542 411.474 213.542 416.891 Q213.542 422.47 210.07 425.571 Q206.598 428.65 200.278 428.65 Q198.102 428.65 195.834 428.28 Q193.588 427.909 191.181 427.169 L191.181 422.47 Q193.264 423.604 195.487 424.159 Q197.709 424.715 200.186 424.715 Q204.19 424.715 206.528 422.608 Q208.866 420.502 208.866 416.891 Q208.866 413.28 206.528 411.173 Q204.19 409.067 200.186 409.067 Q198.311 409.067 196.436 409.484 Q194.584 409.9 192.639 410.78 L192.639 393.419 Z" fill="#000000" fill-rule="nonzero" fill-opacity="1"></path><path clip-path="url(#clip970)" d="M117.015 99.5305 L124.654 99.5305 L124.654 73.1649 L116.343 74.8316 L116.343 70.5723 L124.607 68.9057 L129.283 68.9057 L129.283 99.5305 L136.922 99.5305 L136.922 103.466 L117.015 103.466 L117.015 99.5305 Z" fill="#000000" fill-rule="nonzero" fill-opacity="1"></path><path clip-path="url(#clip970)" d="M146.366 97.5861 L151.251 97.5861 L151.251 103.466 L146.366 103.466 L146.366 97.5861 Z" fill="#000000" fill-rule="nonzero" fill-opacity="1"></path><path clip-path="url(#clip970)" d="M171.436 71.9844 Q167.825 71.9844 165.996 75.5492 Q164.19 79.0908 164.19 86.2204 Q164.19 93.3268 165.996 96.8916 Q167.825 100.433 171.436 100.433 Q175.07 100.433 176.876 96.8916 Q178.704 93.3268 178.704 86.2204 Q178.704 79.0908 176.876 75.5492 Q175.07 71.9844 171.436 71.9844 M171.436 68.2807 Q177.246 68.2807 180.301 72.8871 Q183.38 77.4704 183.38 86.2204 Q183.38 94.9472 180.301 99.5537 Q177.246 104.137 171.436 104.137 Q165.626 104.137 162.547 99.5537 Q159.491 94.9472 159.491 86.2204 Q159.491 77.4704 162.547 72.8871 Q165.626 68.2807 171.436 68.2807 Z" fill="#000000" fill-rule="nonzero" fill-opacity="1"></path><path clip-path="url(#clip970)" d="M201.598 71.9844 Q197.987 71.9844 196.158 75.5492 Q194.352 79.0908 194.352 86.2204 Q194.352 93.3268 196.158 96.8916 Q197.987 100.433 201.598 100.433 Q205.232 100.433 207.037 96.8916 Q208.866 93.3268 208.866 86.2204 Q208.866 79.0908 207.037 75.5492 Q205.232 71.9844 201.598 71.9844 M201.598 68.2807 Q207.408 68.2807 210.463 72.8871 Q213.542 77.4704 213.542 86.2204 Q213.542 94.9472 210.463 99.5537 Q207.408 104.137 201.598 104.137 Q195.787 104.137 192.709 99.5537 Q189.653 94.9472 189.653 86.2204 Q189.653 77.4704 192.709 72.8871 Q195.787 68.2807 201.598 68.2807 Z" fill="#000000" fill-rule="nonzero" fill-opacity="1"></path><path clip-path="url(#clip970)" d="M41.2058 833.828 Q40.6905 833.828 40.143 832.765 L23.4604 796.18 Q22.8162 794.859 22.8162 794.505 Q22.8162 793.861 23.4604 793.861 Q23.9757 793.861 24.7164 795.374 L39.4989 827.548 Q40.4328 829.513 41.2058 831.381 Q42.0109 829.545 42.9127 827.548 L57.6952 795.374 Q58.3393 793.861 58.9512 793.861 Q59.5953 793.861 59.5953 794.505 Q59.5953 794.827 58.9512 796.18 L42.2686 832.765 Q41.8499 833.764 41.2058 833.828 Z" fill="#000000" fill-rule="nonzero" fill-opacity="1"></path><path clip-path="url(#clip970)" d="M57.6952 764.711 L55.6662 764.711 Q55.6662 761.201 55.2475 760.396 Q54.7967 759.591 52.6711 759.591 L34.9901 759.591 Q32.5424 759.591 31.9305 760.46 Q31.3186 761.298 31.3186 764.711 L29.2574 764.711 L28.5489 755.436 L35.4731 755.436 Q28.5489 752.344 28.5489 745.678 Q28.5489 740.718 30.9965 738.753 Q32.639 737.304 34.4748 737.014 Q36.3105 736.692 41.077 736.692 L53.6695 736.692 Q55.0543 736.628 55.3764 735.565 Q55.6662 734.502 55.6662 731.539 L57.6952 731.539 Q57.502 738.27 57.502 738.947 Q57.502 739.462 57.6952 746.386 L55.6662 746.386 Q55.6662 742.876 55.2475 742.071 Q54.7967 741.233 52.6711 741.233 L37.3089 741.233 Q33.9595 741.233 31.9949 742.264 Q29.9981 743.294 29.9981 746.129 Q29.9981 749.542 32.8645 752.28 Q35.7308 755.017 40.5617 755.017 L52.6711 755.017 Q54.7967 755.017 55.2475 754.212 Q55.6662 753.375 55.6662 749.897 L57.6952 749.897 Q57.502 756.628 57.502 757.272 Q57.502 757.787 57.6952 764.711 Z" fill="#000000" fill-rule="nonzero" fill-opacity="1"></path><path clip-path="url(#clip970)" d="M46.9775 713.037 Q47.9694 713.037 48.7134 713.849 Q49.4348 714.638 49.4348 715.494 Q49.4348 716.283 48.9614 716.779 Q48.4654 717.253 47.7665 717.253 Q46.8422 717.253 46.0757 716.464 Q45.3092 715.675 45.3092 714.75 Q45.3092 713.984 45.7826 713.51 Q46.2561 713.037 46.9775 713.037 M69.2285 712.631 Q69.4089 712.631 70.1303 712.834 Q70.8291 713.037 71.9113 713.533 Q72.9708 714.006 73.9628 714.66 Q74.9547 715.314 75.6536 716.396 Q76.3525 717.456 76.3525 718.673 Q76.3525 720.319 75.2703 721.401 Q74.1882 722.46 72.565 722.46 Q71.6858 722.46 68.8678 721.401 Q60.6618 718.335 60.3236 718.222 Q59.0386 717.704 57.9114 717.704 Q57.3929 717.704 57.0772 717.816 Q56.7391 717.929 56.6264 718.155 Q56.4911 718.38 56.4686 718.515 Q56.446 718.628 56.446 718.853 Q56.446 720.184 57.7987 721.423 Q59.1513 722.663 62.1722 723.52 Q62.7358 723.7 62.8711 723.813 Q63.0063 723.926 63.0063 724.264 Q62.9838 724.828 62.5329 724.828 Q62.3977 724.828 61.8791 724.67 Q61.3381 724.512 60.5265 724.219 Q59.6924 723.926 58.8357 723.407 Q57.9565 722.889 57.19 722.258 Q56.4235 721.604 55.9275 720.679 Q55.4315 719.755 55.4315 718.718 Q55.4315 717.027 56.5362 715.99 Q57.6183 714.931 59.2189 714.931 Q60.0982 714.931 61.6537 715.539 Q63.6827 716.283 64.3364 716.554 L69.1834 718.357 Q70.9419 719.011 71.4829 719.214 Q72.0014 719.394 72.6327 719.552 Q73.2414 719.688 73.805 719.688 Q74.594 719.688 74.9547 719.44 Q75.3154 719.169 75.3154 718.583 Q75.3154 716.96 73.7148 715.765 Q72.0916 714.57 69.6118 713.871 Q69.5441 713.849 69.4314 713.826 Q68.8678 713.646 68.8002 713.465 Q68.7776 713.375 68.7776 713.195 Q68.7776 712.631 69.2285 712.631 Z" fill="#000000" fill-rule="nonzero" fill-opacity="1"></path><path clip-path="url(#clip970)" d="M58.9512 687.41 Q58.5647 687.41 58.3393 687.12 Q58.1461 686.798 57.6952 685.832 L42.9127 653.626 Q41.7211 651.114 41.2058 649.826 Q40.6905 651.146 39.4989 653.626 L24.7164 685.832 Q24.652 685.961 24.5232 686.251 Q24.3943 686.54 24.2977 686.734 Q24.2011 686.895 24.0723 687.056 Q23.9112 687.217 23.7824 687.313 Q23.6536 687.41 23.4604 687.41 Q22.8162 687.41 22.8162 686.669 Q22.8162 686.347 23.4604 685.027 L40.143 648.441 Q40.143 648.376 40.2396 648.215 Q40.3362 648.022 40.4651 647.893 Q40.5617 647.765 40.6583 647.636 Q40.7549 647.507 40.8837 647.443 Q41.0126 647.378 41.2058 647.378 Q41.7855 647.443 42.6551 649.278 L58.9512 685.027 Q59.5953 686.347 59.5953 686.669 Q59.5953 687.41 58.9512 687.41 Z" fill="#000000" fill-rule="nonzero" fill-opacity="1"></path><polyline clip-path="url(#clip972)" style="stroke:#009af9; stroke-linecap:round; stroke-linejoin:round; stroke-width:4; stroke-opacity:1; fill:none" points="309.067,1384.24 329.109,1384.24 349.151,1384.24 369.193,1384.24 389.235,1384.24 409.277,1384.24 429.319,1384.24 449.361,1384.24 469.403,1384.24 489.446,1384.24 509.488,1384.24 529.53,1384.24 549.572,1384.24 569.614,1384.24 589.656,1384.24 609.698,1384.24 629.74,1384.24 649.782,1384.24 669.824,1384.24 689.866,1384.06 709.908,1288.44 729.95,1300.17 749.992,1298.58 770.034,1300.17 790.076,1291.55 810.118,1275.77 830.161,1269.68 850.203,1260.44 870.245,1252.18 890.287,1241.89 910.329,1238.47 930.371,1229.77 950.413,1219.15 970.455,1214.61 990.497,1210.98 1010.54,1200.25 1030.58,1195.86 1050.62,1188.05 1070.67,1171.66 1090.71,1175.09 1110.75,1160.16 1130.79,1163.31 1150.83,1141.65 1170.88,1095.77 1190.92,1050.28 1210.96,996.248 1231,939.523 1251.04,878.71 1271.09,821.155 1291.13,766.213 1311.17,690.215 1331.21,627.822 1351.25,561.559 1371.3,498.937 1391.34,465.903 1411.38,421.416 1431.42,383.16 1451.46,333.836 1471.51,310.781 1491.55,305.139 1511.59,291.317 1531.63,287.21 1551.67,281.439 1571.72,274.665 1591.76,268.673 1611.8,260.532 1631.84,255.303 1651.89,251.128 1671.93,242.289 1691.97,228.559 1712.01,240.759 1732.05,222.063 1752.1,207.268 1772.14,206.864 1792.18,195.018 1812.22,179.623 1832.26,182.809 1852.31,189.68 1872.35,170.942 1892.39,145.399 1912.43,107.404 1932.47,229.795 1952.52,86.1857 1972.56,86.1857 1992.6,86.1857 2012.64,86.1857 2032.68,86.1857 2052.73,86.1857 2072.77,86.1857 2092.81,86.1857 2112.85,86.1857 2132.89,86.1857 2152.94,86.1857 2172.98,86.1857 2193.02,86.1857 2213.06,86.1857 2233.1,86.1857 2253.15,86.1857 2273.19,86.1857 2293.23,86.1857 "></polyline>
<polyline clip-path="url(#clip972)" style="stroke:#e26f46; stroke-linecap:round; stroke-linejoin:round; stroke-width:4; stroke-opacity:1; fill:none" points="309.067,1384.24 329.109,1384.24 349.151,1384.24 369.193,1384.24 389.235,1384.24 409.277,1384.24 429.319,1384.24 449.361,1384.24 469.403,1384.24 489.446,1384.24 509.488,1384.24 529.53,1384.24 549.572,1384.24 569.614,1384.24 589.656,1384.24 609.698,1384.24 629.74,1384.24 649.782,1312.22 669.824,1259.18 689.866,1222.37 709.908,1192.22 729.95,1165.93 749.992,1142.24 770.034,1120.45 790.076,1100.1 810.118,1080.91 830.161,1062.67 850.203,1045.2 870.245,1028.4 890.287,1012.16 910.329,996.42 930.371,981.104 950.413,966.164 970.455,951.554 990.497,937.237 1010.54,923.179 1030.58,909.351 1050.62,895.728 1070.67,882.286 1090.71,869.005 1110.75,855.866 1130.79,842.851 1150.83,829.945 1170.88,817.132 1190.92,804.399 1210.96,791.731 1231,779.117 1251.04,766.544 1271.09,753.999 1291.13,741.473 1311.17,728.951 1331.21,716.424 1351.25,703.88 1371.3,691.307 1391.34,678.693 1411.38,666.025 1431.42,653.292 1451.46,640.479 1471.51,627.573 1491.55,614.558 1511.59,601.419 1531.63,588.138 1551.67,574.696 1571.72,561.073 1591.76,547.245 1611.8,533.187 1631.84,518.87 1651.89,504.26 1671.93,489.32 1691.97,474.004 1712.01,458.26 1732.05,442.026 1752.1,425.223 1772.14,407.758 1792.18,389.509 1812.22,370.319 1832.26,349.976 1852.31,328.181 1872.35,304.494 1892.39,278.207 1912.43,248.05 1932.47,211.242 1952.52,158.203 1972.56,86.1857 1992.6,86.1857 2012.64,86.1857 2032.68,86.1857 2052.73,86.1857 2072.77,86.1857 2092.81,86.1857 2112.85,86.1857 2132.89,86.1857 2152.94,86.1857 2172.98,86.1857 2193.02,86.1857 2213.06,86.1857 2233.1,86.1857 2253.15,86.1857 2273.19,86.1857 2293.23,86.1857 "></polyline>
<path clip-path="url(#clip970)" d="M319.649 248.629 L925.2 248.629 L925.2 93.1086 L319.649 93.1086  Z" fill="#ffffff" fill-rule="evenodd" fill-opacity="1"></path>
<polyline clip-path="url(#clip970)" style="stroke:#000000; stroke-linecap:round; stroke-linejoin:round; stroke-width:4; stroke-opacity:1; fill:none" points="319.649,248.629 925.2,248.629 925.2,93.1086 319.649,93.1086 319.649,248.629 "></polyline>
<polyline clip-path="url(#clip970)" style="stroke:#009af9; stroke-linecap:round; stroke-linejoin:round; stroke-width:4; stroke-opacity:1; fill:none" points="343.018,144.949 483.232,144.949 "></polyline>
<path clip-path="url(#clip970)" d="M511.277 131.511 L511.277 158.386 L516.926 158.386 Q524.078 158.386 527.388 155.145 Q530.722 151.905 530.722 144.914 Q530.722 137.969 527.388 134.752 Q524.078 131.511 516.926 131.511 L511.277 131.511 M506.602 127.669 L516.208 127.669 Q526.254 127.669 530.953 131.858 Q535.652 136.025 535.652 144.914 Q535.652 153.849 530.93 158.039 Q526.208 162.229 516.208 162.229 L506.602 162.229 L506.602 127.669 Z" fill="#000000" fill-rule="nonzero" fill-opacity="1"></path><path clip-path="url(#clip970)" d="M543.106 127.669 L550.073 127.669 L558.893 151.187 L567.759 127.669 L574.726 127.669 L574.726 162.229 L570.166 162.229 L570.166 131.882 L561.254 155.585 L556.555 155.585 L547.643 131.882 L547.643 162.229 L543.106 162.229 L543.106 127.669 Z" fill="#000000" fill-rule="nonzero" fill-opacity="1"></path><path clip-path="url(#clip970)" d="M600.397 146.025 Q601.902 146.534 603.314 148.201 Q604.749 149.868 606.184 152.784 L610.93 162.229 L605.907 162.229 L601.485 153.363 Q599.772 149.891 598.152 148.756 Q596.555 147.622 593.777 147.622 L588.684 147.622 L588.684 162.229 L584.008 162.229 L584.008 127.669 L594.564 127.669 Q600.49 127.669 603.407 130.145 Q606.323 132.622 606.323 137.622 Q606.323 140.886 604.795 143.039 Q603.291 145.192 600.397 146.025 M588.684 131.511 L588.684 143.78 L594.564 143.78 Q597.944 143.78 599.657 142.229 Q601.393 140.655 601.393 137.622 Q601.393 134.59 599.657 133.062 Q597.944 131.511 594.564 131.511 L588.684 131.511 Z" fill="#000000" fill-rule="nonzero" fill-opacity="1"></path><path clip-path="url(#clip970)" d="M640.513 157.298 L640.513 148.016 L632.874 148.016 L632.874 144.173 L645.142 144.173 L645.142 159.011 Q642.434 160.932 639.17 161.928 Q635.906 162.9 632.203 162.9 Q624.101 162.9 619.518 158.178 Q614.957 153.432 614.957 144.983 Q614.957 136.511 619.518 131.789 Q624.101 127.044 632.203 127.044 Q635.582 127.044 638.615 127.877 Q641.67 128.71 644.24 130.331 L644.24 135.307 Q641.647 133.108 638.73 131.997 Q635.814 130.886 632.596 130.886 Q626.254 130.886 623.059 134.428 Q619.888 137.969 619.888 144.983 Q619.888 151.974 623.059 155.516 Q626.254 159.057 632.596 159.057 Q635.073 159.057 637.017 158.641 Q638.962 158.201 640.513 157.298 Z" fill="#000000" fill-rule="nonzero" fill-opacity="1"></path><polyline clip-path="url(#clip970)" style="stroke:#e26f46; stroke-linecap:round; stroke-linejoin:round; stroke-width:4; stroke-opacity:1; fill:none" points="343.018,196.789 483.232,196.789 "></polyline>
<path clip-path="url(#clip970)" d="M514.009 180.782 L514.009 188.143 L522.782 188.143 L522.782 191.453 L514.009 191.453 L514.009 205.527 Q514.009 208.698 514.865 209.601 Q515.745 210.504 518.407 210.504 L522.782 210.504 L522.782 214.069 L518.407 214.069 Q513.476 214.069 511.601 212.24 Q509.726 210.388 509.726 205.527 L509.726 191.453 L506.602 191.453 L506.602 188.143 L509.726 188.143 L509.726 180.782 L514.009 180.782 Z" fill="#000000" fill-rule="nonzero" fill-opacity="1"></path><path clip-path="url(#clip970)" d="M549.935 198.421 L549.935 214.069 L545.675 214.069 L545.675 198.559 Q545.675 194.879 544.24 193.05 Q542.805 191.222 539.935 191.222 Q536.486 191.222 534.495 193.421 Q532.504 195.62 532.504 199.416 L532.504 214.069 L528.222 214.069 L528.222 178.05 L532.504 178.05 L532.504 192.171 Q534.032 189.833 536.092 188.675 Q538.175 187.518 540.884 187.518 Q545.351 187.518 547.643 190.296 Q549.935 193.05 549.935 198.421 Z" fill="#000000" fill-rule="nonzero" fill-opacity="1"></path><path clip-path="url(#clip970)" d="M580.606 200.041 L580.606 202.124 L561.023 202.124 Q561.3 206.522 563.661 208.837 Q566.046 211.129 570.282 211.129 Q572.735 211.129 575.027 210.527 Q577.342 209.925 579.61 208.721 L579.61 212.749 Q577.319 213.721 574.911 214.231 Q572.504 214.74 570.027 214.74 Q563.823 214.74 560.189 211.129 Q556.578 207.518 556.578 201.36 Q556.578 194.995 560.004 191.268 Q563.453 187.518 569.286 187.518 Q574.518 187.518 577.55 190.897 Q580.606 194.254 580.606 200.041 M576.347 198.791 Q576.3 195.296 574.379 193.212 Q572.481 191.129 569.333 191.129 Q565.768 191.129 563.615 193.143 Q561.485 195.157 561.161 198.814 L576.347 198.791 Z" fill="#000000" fill-rule="nonzero" fill-opacity="1"></path><path clip-path="url(#clip970)" d="M597.643 191.129 Q594.217 191.129 592.226 193.814 Q590.235 196.476 590.235 201.129 Q590.235 205.782 592.203 208.467 Q594.194 211.129 597.643 211.129 Q601.045 211.129 603.036 208.444 Q605.027 205.758 605.027 201.129 Q605.027 196.522 603.036 193.837 Q601.045 191.129 597.643 191.129 M597.643 187.518 Q603.198 187.518 606.369 191.129 Q609.541 194.74 609.541 201.129 Q609.541 207.495 606.369 211.129 Q603.198 214.74 597.643 214.74 Q592.064 214.74 588.893 211.129 Q585.745 207.495 585.745 201.129 Q585.745 194.74 588.893 191.129 Q592.064 187.518 597.643 187.518 Z" fill="#000000" fill-rule="nonzero" fill-opacity="1"></path><path clip-path="url(#clip970)" d="M631.624 192.124 Q630.906 191.708 630.05 191.522 Q629.217 191.314 628.198 191.314 Q624.587 191.314 622.643 193.675 Q620.721 196.013 620.721 200.411 L620.721 214.069 L616.439 214.069 L616.439 188.143 L620.721 188.143 L620.721 192.171 Q622.064 189.809 624.217 188.675 Q626.369 187.518 629.448 187.518 Q629.888 187.518 630.42 187.587 Q630.953 187.634 631.601 187.749 L631.624 192.124 Z" fill="#000000" fill-rule="nonzero" fill-opacity="1"></path><path clip-path="url(#clip970)" d="M657.226 200.041 L657.226 202.124 L637.642 202.124 Q637.92 206.522 640.281 208.837 Q642.666 211.129 646.902 211.129 Q649.355 211.129 651.647 210.527 Q653.962 209.925 656.23 208.721 L656.23 212.749 Q653.939 213.721 651.531 214.231 Q649.124 214.74 646.647 214.74 Q640.443 214.74 636.809 211.129 Q633.198 207.518 633.198 201.36 Q633.198 194.995 636.624 191.268 Q640.073 187.518 645.906 187.518 Q651.138 187.518 654.17 190.897 Q657.226 194.254 657.226 200.041 M652.966 198.791 Q652.92 195.296 650.999 193.212 Q649.101 191.129 645.953 191.129 Q642.388 191.129 640.235 193.143 Q638.105 195.157 637.781 198.814 L652.966 198.791 Z" fill="#000000" fill-rule="nonzero" fill-opacity="1"></path><path clip-path="url(#clip970)" d="M668.429 180.782 L668.429 188.143 L677.202 188.143 L677.202 191.453 L668.429 191.453 L668.429 205.527 Q668.429 208.698 669.286 209.601 Q670.165 210.504 672.827 210.504 L677.202 210.504 L677.202 214.069 L672.827 214.069 Q667.897 214.069 666.022 212.24 Q664.147 210.388 664.147 205.527 L664.147 191.453 L661.022 191.453 L661.022 188.143 L664.147 188.143 L664.147 180.782 L668.429 180.782 Z" fill="#000000" fill-rule="nonzero" fill-opacity="1"></path><path clip-path="url(#clip970)" d="M682.804 188.143 L687.064 188.143 L687.064 214.069 L682.804 214.069 L682.804 188.143 M682.804 178.05 L687.064 178.05 L687.064 183.444 L682.804 183.444 L682.804 178.05 Z" fill="#000000" fill-rule="nonzero" fill-opacity="1"></path><path clip-path="url(#clip970)" d="M714.633 189.138 L714.633 193.12 Q712.827 192.124 710.999 191.638 Q709.193 191.129 707.341 191.129 Q703.198 191.129 700.906 193.768 Q698.614 196.384 698.614 201.129 Q698.614 205.874 700.906 208.513 Q703.198 211.129 707.341 211.129 Q709.193 211.129 710.999 210.643 Q712.827 210.133 714.633 209.138 L714.633 213.073 Q712.85 213.907 710.929 214.323 Q709.031 214.74 706.878 214.74 Q701.022 214.74 697.573 211.059 Q694.124 207.379 694.124 201.129 Q694.124 194.786 697.596 191.152 Q701.091 187.518 707.156 187.518 Q709.124 187.518 710.999 187.935 Q712.874 188.328 714.633 189.138 Z" fill="#000000" fill-rule="nonzero" fill-opacity="1"></path><path clip-path="url(#clip970)" d="M733.823 201.036 Q728.661 201.036 726.67 202.217 Q724.679 203.397 724.679 206.245 Q724.679 208.513 726.161 209.856 Q727.665 211.175 730.235 211.175 Q733.776 211.175 735.906 208.675 Q738.059 206.152 738.059 201.985 L738.059 201.036 L733.823 201.036 M742.318 199.277 L742.318 214.069 L738.059 214.069 L738.059 210.133 Q736.6 212.495 734.424 213.629 Q732.248 214.74 729.1 214.74 Q725.119 214.74 722.758 212.518 Q720.42 210.272 720.42 206.522 Q720.42 202.147 723.336 199.925 Q726.276 197.703 732.086 197.703 L738.059 197.703 L738.059 197.286 Q738.059 194.347 736.114 192.749 Q734.193 191.129 730.698 191.129 Q728.475 191.129 726.369 191.661 Q724.262 192.194 722.318 193.259 L722.318 189.323 Q724.656 188.421 726.855 187.981 Q729.054 187.518 731.137 187.518 Q736.762 187.518 739.54 190.434 Q742.318 193.351 742.318 199.277 Z" fill="#000000" fill-rule="nonzero" fill-opacity="1"></path><path clip-path="url(#clip970)" d="M751.091 178.05 L755.35 178.05 L755.35 214.069 L751.091 214.069 L751.091 178.05 Z" fill="#000000" fill-rule="nonzero" fill-opacity="1"></path><path clip-path="url(#clip970)" d="M776.276 188.143 L780.79 188.143 L788.892 209.902 L796.993 188.143 L801.507 188.143 L791.785 214.069 L785.998 214.069 L776.276 188.143 Z" fill="#000000" fill-rule="nonzero" fill-opacity="1"></path><path clip-path="url(#clip970)" d="M819.169 201.036 Q814.007 201.036 812.017 202.217 Q810.026 203.397 810.026 206.245 Q810.026 208.513 811.507 209.856 Q813.012 211.175 815.581 211.175 Q819.123 211.175 821.253 208.675 Q823.405 206.152 823.405 201.985 L823.405 201.036 L819.169 201.036 M827.665 199.277 L827.665 214.069 L823.405 214.069 L823.405 210.133 Q821.947 212.495 819.771 213.629 Q817.595 214.74 814.447 214.74 Q810.466 214.74 808.105 212.518 Q805.767 210.272 805.767 206.522 Q805.767 202.147 808.683 199.925 Q811.623 197.703 817.433 197.703 L823.405 197.703 L823.405 197.286 Q823.405 194.347 821.461 192.749 Q819.54 191.129 816.044 191.129 Q813.822 191.129 811.716 191.661 Q809.609 192.194 807.665 193.259 L807.665 189.323 Q810.003 188.421 812.202 187.981 Q814.401 187.518 816.484 187.518 Q822.109 187.518 824.887 190.434 Q827.665 193.351 827.665 199.277 Z" fill="#000000" fill-rule="nonzero" fill-opacity="1"></path><path clip-path="url(#clip970)" d="M836.438 178.05 L840.697 178.05 L840.697 214.069 L836.438 214.069 L836.438 178.05 Z" fill="#000000" fill-rule="nonzero" fill-opacity="1"></path><path clip-path="url(#clip970)" d="M849.169 203.837 L849.169 188.143 L853.428 188.143 L853.428 203.675 Q853.428 207.356 854.864 209.208 Q856.299 211.036 859.169 211.036 Q862.618 211.036 864.609 208.837 Q866.623 206.638 866.623 202.842 L866.623 188.143 L870.882 188.143 L870.882 214.069 L866.623 214.069 L866.623 210.087 Q865.072 212.448 863.012 213.606 Q860.975 214.74 858.266 214.74 Q853.799 214.74 851.484 211.962 Q849.169 209.184 849.169 203.837 M859.887 187.518 L859.887 187.518 Z" fill="#000000" fill-rule="nonzero" fill-opacity="1"></path><path clip-path="url(#clip970)" d="M901.831 200.041 L901.831 202.124 L882.248 202.124 Q882.525 206.522 884.887 208.837 Q887.271 211.129 891.507 211.129 Q893.961 211.129 896.252 210.527 Q898.567 209.925 900.836 208.721 L900.836 212.749 Q898.544 213.721 896.136 214.231 Q893.729 214.74 891.252 214.74 Q885.049 214.74 881.414 211.129 Q877.803 207.518 877.803 201.36 Q877.803 194.995 881.229 191.268 Q884.678 187.518 890.511 187.518 Q895.743 187.518 898.775 190.897 Q901.831 194.254 901.831 200.041 M897.572 198.791 Q897.525 195.296 895.604 193.212 Q893.706 191.129 890.558 191.129 Q886.993 191.129 884.84 193.143 Q882.711 195.157 882.387 198.814 L897.572 198.791 Z" fill="#000000" fill-rule="nonzero" fill-opacity="1"></path></svg>